<svg width="1532" height="521" viewBox="0 0 1532 521" fill="none" xmlns="http://www.w3.org/2000/svg">
<path d="M264.202 0C313.05 0 350.625 13.9845 376.927 41.9534C402.29 70.3885 410.276 106.981 400.881 151.731C393.837 183.896 378.336 212.565 354.382 237.737C330.897 262.442 297.314 285.983 253.634 308.358L193.044 339.123C159.226 356.371 134.332 373.385 118.362 390.167C102.393 407.414 90.1808 429.323 81.7264 455.893H342.405L331.132 509.035H0L7.04537 481.766C17.3786 441.676 33.1132 406.715 54.2494 376.882C74.9158 348.912 108.734 323.041 155.702 299.268L226.86 262.908C262.557 244.728 288.861 227.481 305.769 211.165C322.679 194.384 333.717 174.573 338.883 151.731C345.459 120.5 341.7 96.2599 327.61 79.0123C313.989 61.7648 290.505 53.1411 257.156 53.1411C189.52 53.1411 148.188 88.8014 133.158 160.122H73.9764C93.7035 53.3741 157.111 0 264.202 0ZM615.661 19.5783L613.547 42.6527C598.048 42.6527 586.306 45.6826 578.321 51.7425C570.335 57.8026 564.7 66.1932 561.412 76.9146C558.593 87.1699 556.714 98.8237 555.775 111.876L544.503 338.424C542.154 382.242 536.519 417.437 527.594 444.007C519.139 470.578 506.223 489.922 488.844 502.042C471.935 514.162 449.86 520.223 422.618 520.223C411.345 520.223 400.308 518.591 389.505 515.329C378.702 512.531 369.542 507.404 362.028 499.945C354.982 492.487 351.46 482.698 351.46 470.578C351.46 461.255 354.278 453.097 359.913 446.105C365.081 438.647 372.596 434.685 382.459 434.219C394.201 433.285 402.656 436.549 407.823 444.007C412.989 450.999 415.572 457.992 415.572 464.984C415.572 467.314 415.337 470.112 414.868 473.375C414.398 476.171 413.694 478.735 412.754 481.067C415.103 484.795 418.625 487.592 423.323 489.456C428.019 491.321 432.247 492.254 436.004 492.254C441.64 491.788 447.746 489.922 454.323 486.66C461.367 483.397 467.474 475.472 472.64 462.886C478.277 449.834 481.799 429.556 483.208 402.054L497.299 124.462C498.238 111.41 498.942 98.5906 499.412 86.0046C500.351 73.4185 501.057 60.5994 501.527 47.5473C493.542 47.5473 485.556 47.7803 477.573 48.2464C469.587 48.7126 461.602 49.1787 453.617 49.645C445.633 49.645 437.648 49.878 429.663 50.3441L431.073 19.5783H615.661ZM804.202 151.731C818.293 151.731 833.792 152.896 850.702 155.228C867.61 157.093 883.581 159.889 898.61 163.618C894.853 191.588 891.095 219.556 887.338 247.526C884.05 275.028 880.761 301.365 877.474 326.537C874.656 351.243 872.308 373.618 870.428 393.663C868.549 413.242 867.61 428.624 867.61 439.812C867.61 449.135 868.315 458.458 869.723 467.78C871.134 477.103 877.004 481.766 887.338 481.766C895.323 481.766 904.011 476.637 913.405 466.382C923.269 456.126 931.724 438.647 938.768 413.941L958.496 418.136C957.087 426.527 954.034 436.316 949.337 447.504C945.11 458.225 939.238 468.947 931.724 479.667C924.208 490.388 915.049 499.246 904.246 506.238C893.443 513.23 880.996 516.727 866.906 516.727C848.119 516.727 834.731 510.899 826.748 499.246C818.762 487.592 814.77 472.443 814.77 453.796C814.77 440.278 815.945 425.595 818.293 409.745C821.111 393.896 824.165 377.348 827.452 360.1H825.339C814.066 394.595 802.324 422.332 790.112 443.307C778.37 463.818 766.392 479.434 754.181 490.155C742.438 500.877 730.931 507.87 719.658 511.132C708.385 514.863 697.817 516.727 687.953 516.727C662.59 516.727 641.219 507.404 623.84 488.757C606.931 470.112 598.477 438.88 598.477 395.061C598.477 362.43 602.705 331.433 611.158 302.064C619.613 272.698 632.295 246.825 649.204 224.452C666.582 201.61 688.188 183.896 714.021 171.31C739.854 158.258 769.915 151.731 804.202 151.731ZM782.361 176.903C761.225 176.903 742.673 182.731 726.703 194.384C711.203 206.038 698.287 221.887 687.953 241.931C677.62 261.51 669.87 283.652 664.704 308.358C660.007 332.598 657.658 357.537 657.658 383.174C657.658 413.009 660.947 437.714 667.521 457.293C674.098 476.404 686.075 485.961 703.453 485.961C716.134 485.961 728.816 479.667 741.499 467.081C754.65 454.495 766.862 437.714 778.135 416.737C789.407 395.294 799.504 371.521 808.429 345.417C817.353 318.847 824.399 291.809 829.565 264.307C834.731 236.804 837.316 210.466 837.316 185.294C830.27 182.498 822.05 180.4 812.657 179.002C803.263 177.604 793.164 176.903 782.361 176.903ZM1439.59 516.727C1417.52 516.727 1402.49 510.899 1394.5 499.246C1386.98 487.592 1383.23 471.044 1383.23 449.601C1383.23 436.549 1384.4 421.165 1386.75 403.452C1389.57 385.738 1392.62 366.86 1395.91 346.815C1399.2 326.77 1402.01 306.494 1404.36 285.983C1407.18 265.472 1408.59 245.893 1408.59 227.248C1408.59 221.654 1407.65 215.594 1405.77 209.068C1403.89 202.542 1400.61 196.948 1395.91 192.287C1391.21 187.158 1384.17 184.595 1374.77 184.595C1361.62 184.595 1348.71 190.656 1336.02 202.775C1323.34 214.895 1311.6 231.21 1300.8 251.721C1289.99 272.232 1280.36 295.073 1271.91 320.245C1263.93 344.951 1257.58 370.589 1252.89 397.159C1248.19 423.264 1245.84 448.203 1245.84 471.976C1245.84 478.968 1245.84 485.495 1245.84 491.554C1246.31 497.148 1246.78 502.974 1247.25 509.035H1188.07C1187.6 505.772 1187.37 502.974 1187.37 500.644C1187.37 497.847 1187.37 494.585 1187.37 490.855C1187.37 473.142 1188.54 452.165 1190.89 427.925C1193.71 403.685 1196.76 378.747 1200.05 353.109C1203.81 327.469 1206.86 303.23 1209.21 280.388C1212.02 257.547 1213.2 238.902 1212.73 224.452C1212.26 216.527 1209.91 207.902 1205.68 198.579C1201.46 189.257 1192.53 184.595 1178.91 184.595C1165.76 184.595 1152.84 190.656 1140.16 202.775C1127.95 214.895 1116.44 231.21 1105.64 251.721C1094.84 272.232 1085.21 295.073 1076.75 320.245C1068.3 344.951 1061.72 370.589 1057.03 397.159C1052.33 423.264 1049.98 448.203 1049.98 471.976C1049.98 478.968 1049.98 485.495 1049.98 491.554C1050.45 497.148 1050.92 502.974 1051.39 509.035H992.21C991.74 505.772 991.505 502.974 991.505 500.644C991.505 497.847 991.505 494.585 991.505 490.855C991.505 482.931 991.74 473.841 992.21 463.585C993.149 452.864 994.558 438.88 996.436 421.633C998.784 403.918 1001.6 380.378 1004.89 351.01C1008.18 323.508 1010.76 302.064 1012.64 286.682C1014.52 271.299 1015.93 259.646 1016.87 251.721C1017.81 243.33 1018.28 237.037 1018.28 232.841C1018.75 228.18 1018.98 223.285 1018.98 218.158C1018.98 209.767 1017.81 202.542 1015.46 196.482C1013.11 189.956 1007.94 186.692 999.959 186.692C992.444 186.692 983.755 191.821 973.891 202.076C964.027 212.332 955.572 229.812 948.528 254.517L928.8 250.322C930.209 241.931 933.029 232.375 937.255 221.654C941.952 210.466 948.058 199.511 955.572 188.791C963.088 178.07 972.247 169.212 983.05 162.22C993.853 155.228 1006.3 151.731 1020.39 151.731C1035.89 151.731 1047.4 155.694 1054.91 163.618C1062.43 171.077 1067.36 181.099 1069.71 193.685C1072.53 205.805 1073.47 219.09 1072.53 233.54C1072.06 246.592 1070.65 259.879 1068.3 273.397C1065.95 286.449 1063.84 297.87 1061.96 307.659H1064.07C1079.1 265.239 1093.9 232.841 1108.46 210.466C1123.49 188.091 1138.05 172.708 1152.14 164.317C1166.7 155.927 1180.32 151.731 1193 151.731C1211.79 151.731 1226.59 156.16 1237.39 165.016C1248.66 173.407 1256.65 183.663 1261.34 195.783C1266.04 207.902 1268.39 219.789 1268.39 231.443C1268.39 244.495 1267.45 255.683 1265.57 265.006C1263.69 274.329 1260.64 287.847 1256.41 305.562H1258.52C1274.02 263.141 1289.29 230.977 1304.32 209.068C1319.82 186.692 1334.85 171.543 1349.41 163.618C1363.97 155.694 1377.59 151.731 1390.27 151.731C1409.06 151.731 1423.86 155.927 1434.66 164.317C1445.46 172.708 1452.98 183.896 1457.2 197.88C1461.9 211.398 1464.25 226.316 1464.25 242.631C1464.25 268.268 1462.37 294.607 1458.61 321.643C1454.86 348.213 1450.86 372.919 1446.64 395.76C1442.88 418.136 1441 436.083 1441 449.601C1441 457.992 1441.94 465.45 1443.82 471.976C1446.17 478.502 1451.57 481.766 1460.02 481.766C1468 481.766 1476.92 476.87 1486.8 467.081C1496.66 456.827 1505.12 439.113 1512.16 413.941L1531.89 418.835C1530.48 426.76 1527.42 436.316 1522.73 447.504C1518.03 458.691 1511.93 469.646 1504.41 480.368C1496.9 490.622 1487.74 499.246 1476.92 506.238C1466.13 513.23 1453.68 516.727 1439.59 516.727Z" fill="#EB84F8"/>
</svg>
