<svg width="850" height="300" viewBox="0 0 850 300" fill="none" xmlns="http://www.w3.org/2000/svg">
<g clip-path="url(#clip0_648_66)">
<path d="M200.194 16.3228C234 28.9439 264.383 47.1575 279.873 74.409C296.323 103.352 301.13 136.951 285.344 166.132C269.47 195.476 234.931 214.308 197.87 225.989C160.58 237.743 118.583 243.898 82.3917 230.101C46.8694 216.56 29.1358 186.089 15.4734 156.457C2.05277 127.349 -7.07976 95.9467 7.24574 67.1195C22.0277 37.373 53.3726 13.9552 91.2427 3.98483C127.475 -5.55376 165.615 3.41328 200.194 16.3228Z" fill="#FAE0FD"/>
<path fill-rule="evenodd" clip-rule="evenodd" d="M429.132 39.7955C475.05 41.4125 525.809 37.298 558.84 57.6672C592.163 78.2159 587.229 110.862 592.013 140.238C597.72 175.288 619.846 212.716 588.843 241.909C554.069 274.651 491.118 291.355 429.132 293.602C363.606 295.977 287.998 288.315 250.134 254.188C214.307 221.896 252.476 179.555 258.979 140.238C264.316 107.971 246.864 70.0594 284.237 47.9985C321.199 26.1795 378.802 38.0236 429.132 39.7955Z" stroke="#EB84F8" stroke-width="5"/>
<path fill-rule="evenodd" clip-rule="evenodd" d="M738.925 11.662C775.609 9.99287 818.956 18.0011 840.031 42.1647C861.209 66.4448 840.063 99.6445 841.49 129.256C842.757 155.524 854.694 180.627 847.947 206.349C839.911 236.993 838.395 290.958 799.402 289.734C745.732 288.048 739.21 208.895 686.342 201.273C646.486 195.529 632.832 258.074 592.406 259.894C555.708 261.546 507.651 238.852 504.503 209.46C500.932 176.132 574.387 164.473 578.619 131.198C583.308 94.3237 499.399 59.8635 527.286 30.3247C553.97 2.05932 610.784 54.4703 654.712 50.5962C687.583 47.6975 705.908 13.1642 738.925 11.662Z" fill="#EB84F8"/>
</g>
<defs>
<clipPath id="clip0_648_66">
<rect width="850" height="300" fill="white"/>
</clipPath>
</defs>
</svg>
