<svg width="850" height="300" viewBox="0 0 850 300" fill="none" xmlns="http://www.w3.org/2000/svg">
<g clip-path="url(#clip0_648_57)">
<path fill-rule="evenodd" clip-rule="evenodd" d="M748.686 85.0596C780.137 80.4363 814.418 33.4081 838.516 62.3605C862.251 90.8772 843.033 146.646 835.521 189.388C830.237 219.453 819.106 245.228 802.755 265.847C787.521 285.056 769.022 296.43 748.686 298.888C726.06 301.623 701.973 300.665 684.509 280.14C665.741 258.084 657.063 223.827 655.511 189.388C653.844 152.381 655.215 109.303 675.773 86.2832C695.583 64.1024 723.554 88.7539 748.686 85.0596Z" fill="#FDF3FF"/>
<path fill-rule="evenodd" clip-rule="evenodd" d="M468.795 22.8131C498.616 14.1572 520.023 51.3559 546.822 67.1286C567.959 79.5688 595.041 82.8325 607.107 104.218C620.543 128.03 621.245 157.187 612.18 182.961C602.434 210.674 585.801 242.373 556.861 247.087C528.905 251.642 510.689 219.912 487.737 203.234C472.489 192.154 456.663 183.396 446.951 167.222C434.77 146.938 423.37 125.324 426.908 101.935C431.552 71.2356 439.046 31.448 468.795 22.8131Z" fill="#EB84F8"/>
<path fill-rule="evenodd" clip-rule="evenodd" d="M374.38 129.617C389.433 155.904 430.011 168.523 427.878 198.745C425.653 230.275 393.235 250.785 364.848 264.67C336.52 278.525 304.026 284.419 274.32 273.853C244.939 263.402 224.07 238.234 210.96 209.931C198.176 182.332 187.128 147.607 204.168 122.408C220.314 98.532 258.207 112.792 284.549 101.108C308.638 90.4245 322.596 50.7745 347.709 58.7444C372.713 66.6797 361.341 106.847 374.38 129.617Z" fill="#F8D7FC"/>
<path fill-rule="evenodd" clip-rule="evenodd" d="M89.3471 0.0438679C68.1748 1.02837 54.9007 21.1141 39.5729 35.8653C23.6387 51.2001 0.437193 63.8243 0.00646065 86.0234C-0.426843 108.355 21.0168 123.348 37.5876 138.182C52.7845 151.786 69.404 162.037 89.3471 166C115.599 171.216 146.884 182.107 166.532 163.804C186.296 145.393 179.747 112.755 175.199 86.0234C171.515 64.3724 159.399 46.4972 143.937 31.0123C128.54 15.592 111.032 -0.964482 89.3471 0.0438679Z" fill="#EB84F8" fill-opacity="0.63"/>
</g>
<defs>
<clipPath id="clip0_648_57">
<rect width="850" height="300" fill="white"/>
</clipPath>
</defs>
</svg>
