<svg width="850" height="300" viewBox="0 0 850 300" fill="none" xmlns="http://www.w3.org/2000/svg">
<path d="M122.664 72.3042C124.257 73.3714 125.837 74.4891 127.405 75.646L126.514 76.8528C127.281 77.4195 128.046 77.9961 128.808 78.5811C129.58 79.1744 130.349 79.78 131.113 80.3983L132.057 79.2323C133.584 80.4679 135.094 81.7541 136.582 83.0936L135.579 84.2086C137.019 85.5045 138.438 86.8508 139.833 88.2499L140.895 87.1911C142.281 88.5814 143.643 90.0236 144.976 91.5201L143.856 92.518C145.143 93.9618 146.403 95.4568 147.632 97.0052L148.807 96.0724C150.026 97.6073 151.216 99.1941 152.372 100.835L151.146 101.699C152.258 103.276 153.339 104.904 154.386 106.585L155.659 105.792C156.694 107.453 157.696 109.164 158.662 110.929L157.346 111.649C158.272 113.339 159.164 115.079 160.021 116.87L161.374 116.222C162.217 117.985 163.025 119.796 163.797 121.657L162.411 122.231C163.149 124.01 163.852 125.836 164.519 127.71L165.932 127.207C166.587 129.046 167.206 130.931 167.789 132.862L166.353 133.295C166.634 134.226 166.906 135.168 167.17 136.121C167.425 137.047 167.675 137.977 167.919 138.912L169.371 138.533C169.858 140.401 170.322 142.287 170.761 144.188L169.3 144.525C169.732 146.394 170.139 148.279 170.522 150.176L171.992 149.879C172.375 151.775 172.732 153.683 173.064 155.602L171.586 155.858C171.913 157.752 172.215 159.656 172.49 161.567L173.974 161.354C174.25 163.272 174.5 165.197 174.721 167.129L173.231 167.3C173.451 169.212 173.643 171.129 173.807 173.05L175.302 172.923C175.467 174.856 175.604 176.793 175.711 178.731L174.214 178.814C174.32 180.738 174.398 182.662 174.445 184.586L175.944 184.549C175.992 186.492 176.009 188.433 175.995 190.372L174.495 190.361C174.481 192.289 174.435 194.213 174.357 196.132L175.856 196.193C175.777 198.137 175.665 200.075 175.519 202.006L174.023 201.893C173.878 203.816 173.699 205.731 173.484 207.636L174.975 207.804C174.757 209.738 174.504 211.663 174.214 213.577L172.731 213.352C172.442 215.257 172.116 217.151 171.752 219.029L173.224 219.315C172.854 221.227 172.445 223.125 171.995 225.006L170.536 224.657C170.313 225.592 170.079 226.523 169.836 227.448C169.57 228.46 169.293 229.458 169.006 230.444L170.446 230.863C169.849 232.914 169.207 234.911 168.522 236.856L167.107 236.358C166.409 238.343 165.666 240.273 164.882 242.148L166.267 242.727C165.445 244.694 164.578 246.603 163.67 248.456L162.323 247.795C161.399 249.681 160.432 251.507 159.425 253.274L160.728 254.017C159.675 255.867 158.579 257.654 157.444 259.382L156.19 258.558C155.041 260.308 153.852 261.995 152.627 263.621L153.825 264.523C152.545 266.221 151.228 267.854 149.877 269.423L148.74 268.445C147.376 270.03 145.977 271.549 144.549 273.005L145.62 274.055C144.133 275.571 142.616 277.019 141.073 278.402L140.072 277.285C138.515 278.68 136.932 280.008 135.329 281.272L136.258 282.45C134.591 283.764 132.902 285.01 131.199 286.189L130.345 284.956C129.491 285.547 128.633 286.122 127.772 286.681C126.93 287.226 126.084 287.759 125.234 288.279L126.016 289.559C124.274 290.623 122.513 291.631 120.739 292.57L120.037 291.244C118.257 292.186 116.467 293.056 114.669 293.842L115.27 295.216C113.39 296.039 111.5 296.772 109.603 297.403L109.13 295.98C107.23 296.612 105.33 297.137 103.434 297.541L103.747 299.008C101.743 299.435 99.7375 299.733 97.7377 299.884L97.6244 298.389C95.6672 298.537 93.7209 298.54 91.7904 298.382L91.6682 299.877C89.6601 299.713 87.6634 299.382 85.6843 298.867L86.0618 297.416C84.223 296.938 82.399 296.293 80.5944 295.467L79.9701 296.831C78.1854 296.014 76.4205 295.028 74.6801 293.858L75.5166 292.613C74.7214 292.079 73.9303 291.504 73.1439 290.888C72.4099 290.312 71.6909 289.704 70.9862 289.064L69.9779 290.174C68.5562 288.884 67.1961 287.474 65.8934 285.956L67.0317 284.979C65.8197 283.567 64.6553 282.055 63.5354 280.45L62.3055 281.309C61.2086 279.738 60.1566 278.085 59.1462 276.359L60.4406 275.601C59.4882 273.975 58.5717 272.279 57.6886 270.522L56.3483 271.195C55.4839 269.475 54.6524 267.699 53.8514 265.875L55.2248 265.272C54.4589 263.528 53.7203 261.737 53.0068 259.905L51.6091 260.449C50.9074 258.648 50.2305 256.809 49.5763 254.939L50.9921 254.443C50.3573 252.629 49.7435 250.783 49.1488 248.911L47.7193 249.365C47.131 247.514 46.5618 245.639 46.0096 243.745L47.4496 243.325C46.9078 241.466 46.3822 239.589 45.871 237.697L44.4229 238.088C43.9141 236.205 43.4197 234.309 42.9381 232.404L44.3923 232.037C43.9149 230.149 43.4499 228.252 42.9954 226.351L41.5365 226.7C41.0811 224.795 40.6366 222.887 40.201 220.979L41.6634 220.645C41.4457 219.692 41.2303 218.739 41.0168 217.787C40.8114 216.87 40.608 215.951 40.4071 215.031L38.9416 215.351C38.5404 213.512 38.1485 211.665 37.7683 209.811L39.2377 209.51C38.8607 207.672 38.4953 205.827 38.1438 203.977L36.6701 204.257C36.3183 202.406 35.9803 200.548 35.6581 198.686L37.1362 198.43C36.8162 196.581 36.5121 194.727 36.2261 192.87L34.7435 193.098C34.4563 191.233 34.1871 189.365 33.9381 187.494L35.425 187.296C35.1774 185.435 34.9501 183.573 34.7452 181.709L33.2542 181.873C33.0477 179.996 32.8638 178.117 32.7047 176.238L34.1994 176.112C34.041 174.242 33.9074 172.373 33.8009 170.505L32.3033 170.59C32.1956 168.703 32.1152 166.817 32.0643 164.934L33.5638 164.893C33.5131 163.019 33.492 161.148 33.5027 159.281L32.0027 159.272C32.0135 157.381 32.0565 155.494 32.1341 153.612L33.6328 153.673C33.7099 151.803 33.8214 149.938 33.9696 148.079L32.4743 147.96C32.6245 146.076 32.8121 144.198 33.0394 142.327L34.5285 142.508C34.7538 140.653 35.0184 138.807 35.3247 136.969L33.8451 136.723C34.1556 134.86 34.5086 133.006 34.9063 131.161L36.3726 131.478C36.5689 130.567 36.7763 129.659 36.995 128.754C37.2468 127.711 37.5086 126.676 37.7801 125.65L36.33 125.266C36.887 123.16 37.4846 121.088 38.1209 119.052L39.5526 119.5C40.196 117.442 40.8793 115.421 41.6006 113.442L40.1912 112.929C40.9383 110.879 41.7258 108.872 42.5517 106.911L43.9341 107.493C44.7722 105.503 45.6499 103.562 46.565 101.672L45.215 101.019C46.1681 99.0507 47.1617 97.1375 48.1932 95.2825L49.5042 96.0115C50.5541 94.1235 51.6433 92.2979 52.7689 90.5384L51.5054 89.73C52.6873 87.8825 53.9097 86.1055 55.1696 84.4033L56.3753 85.2956C57.6597 83.5603 58.9824 81.9057 60.3399 80.3365L59.2055 79.3551C60.6435 77.6929 62.1215 76.1226 63.6358 74.6498L64.6817 75.7251C66.225 74.224 67.8043 72.8288 69.4154 71.5446L68.4804 70.3717C70.2002 69.0009 71.9581 67.7512 73.7495 66.6296L74.5455 67.9009C75.4406 67.3405 76.3434 66.8135 77.2531 66.3208C78.0844 65.8705 78.9166 65.4638 79.7494 65.0987L79.1471 63.7249C80.9685 62.9264 82.7984 62.3155 84.6337 61.8765L84.9826 63.3354C86.7976 62.9013 88.6193 62.6434 90.446 62.5455L90.3656 61.0476C92.2939 60.9442 94.2249 61.011 96.1554 61.2299L95.9864 62.7204C97.8104 62.9272 99.6404 63.2763 101.474 63.7532L101.851 62.3015C103.693 62.7805 105.531 63.3824 107.363 64.0915L106.822 65.4904C108.549 66.1589 110.275 66.927 111.998 67.782L112.665 66.4384C114.372 67.2854 116.071 68.2135 117.759 69.2097L116.997 70.5016C118.615 71.4565 120.227 72.4765 121.829 73.5503L122.664 72.3042Z" stroke="#EB84F8" stroke-width="3" stroke-dasharray="6 6"/>
<path d="M281.67 71.3553C283.261 72.4263 284.841 73.5479 286.407 74.7088L285.513 75.9138C286.28 76.4824 287.044 77.0609 287.806 77.6479C288.579 78.2443 289.348 78.8532 290.114 79.475L291.059 78.3109C292.588 79.553 294.1 80.8461 295.59 82.1928L294.584 83.3056C296.025 84.6082 297.446 85.9614 298.841 87.3679L299.906 86.3114C301.292 87.7086 302.655 89.1579 303.989 90.6618L302.867 91.6573C304.153 93.1079 305.414 94.61 306.643 96.1659L307.82 95.2358C309.039 96.7776 310.228 98.3716 311.385 100.02L310.157 100.881C311.268 102.465 312.349 104.1 313.396 105.788L314.67 104.998C315.704 106.665 316.706 108.384 317.671 110.155L316.354 110.873C317.279 112.57 318.171 114.316 319.027 116.114L320.381 115.469C321.223 117.238 322.031 119.055 322.802 120.923L321.415 121.495C322.152 123.28 322.855 125.113 323.521 126.993L324.935 126.492C325.589 128.337 326.208 130.228 326.79 132.165L325.353 132.597C325.634 133.531 325.906 134.476 326.169 135.432C326.425 136.362 326.675 137.297 326.919 138.236L328.371 137.858C328.858 139.734 329.322 141.628 329.762 143.537L328.3 143.873C328.732 145.751 329.139 147.643 329.522 149.548L330.993 149.253C331.375 151.157 331.733 153.073 332.064 155L330.586 155.255C330.913 157.157 331.215 159.069 331.49 160.989L332.975 160.776C333.251 162.702 333.5 164.635 333.722 166.575L332.231 166.745C332.451 168.665 332.643 170.591 332.807 172.52L334.302 172.393C334.467 174.334 334.604 176.279 334.711 178.225L333.214 178.308C333.32 180.239 333.398 182.172 333.445 184.104L334.944 184.067C334.992 186.017 335.009 187.967 334.995 189.914L333.495 189.903C333.481 191.838 333.435 193.771 333.357 195.698L334.856 195.759C334.777 197.71 334.665 199.657 334.519 201.596L333.023 201.483C332.878 203.414 332.699 205.337 332.485 207.25L333.975 207.417C333.758 209.36 333.504 211.293 333.214 213.214L331.731 212.99C331.442 214.904 331.116 216.805 330.752 218.692L332.225 218.976C331.854 220.897 331.445 222.803 330.995 224.692L329.536 224.344C329.313 225.283 329.079 226.218 328.836 227.148C328.57 228.162 328.294 229.164 328.007 230.153L329.447 230.571C328.851 232.627 328.209 234.63 327.526 236.582L326.11 236.086C325.412 238.078 324.671 240.014 323.888 241.896L325.273 242.472C324.452 244.446 323.586 246.362 322.679 248.221L321.331 247.563C320.408 249.456 319.441 251.289 318.435 253.063L319.74 253.803C318.688 255.66 317.592 257.455 316.459 259.19L315.203 258.369C314.054 260.126 312.865 261.821 311.641 263.454L312.841 264.353C311.562 266.059 310.244 267.699 308.893 269.276L307.754 268.3C306.39 269.893 304.991 271.419 303.562 272.882L304.636 273.93C303.149 275.454 301.63 276.909 300.087 278.299L299.083 277.185C297.525 278.587 295.941 279.923 294.336 281.193L295.268 282.369C293.598 283.691 291.908 284.943 290.203 286.129L289.346 284.897C288.491 285.492 287.631 286.07 286.769 286.632C285.928 287.179 285.083 287.714 284.233 288.235L285.018 289.514C283.276 290.582 281.517 291.594 279.743 292.537L279.039 291.212C277.26 292.158 275.469 293.031 273.673 293.821L274.276 295.194C272.396 296.02 270.505 296.756 268.609 297.39L268.133 295.968C266.233 296.603 264.333 297.13 262.437 297.536L262.751 299.003C260.746 299.432 258.74 299.731 256.739 299.884L256.625 298.388C254.667 298.537 252.72 298.54 250.789 298.381L250.666 299.876C248.657 299.711 246.66 299.379 244.68 298.861L245.059 297.41C243.22 296.93 241.396 296.283 239.592 295.453L238.965 296.816C237.181 295.995 235.417 295.005 233.678 293.831L234.517 292.588C233.722 292.052 232.932 291.475 232.146 290.856C231.411 290.277 230.691 289.665 229.985 289.022L228.974 290.13C227.551 288.832 226.19 287.414 224.886 285.888L226.026 284.914C224.813 283.494 223.648 281.974 222.528 280.361L221.296 281.217C220.199 279.638 219.147 277.978 218.136 276.244L219.432 275.488C218.48 273.854 217.564 272.151 216.681 270.385L215.339 271.056C214.475 269.329 213.644 267.546 212.843 265.714L214.218 265.113C213.452 263.361 212.714 261.563 212.001 259.723L210.602 260.266C209.901 258.457 209.224 256.611 208.57 254.733L209.987 254.24C209.352 252.418 208.739 250.565 208.145 248.686L206.714 249.138C206.127 247.28 205.558 245.397 205.006 243.496L206.446 243.078C205.905 241.212 205.379 239.328 204.869 237.429L203.42 237.819C202.912 235.929 202.418 234.025 201.936 232.114L203.391 231.748C202.914 229.853 202.449 227.949 201.995 226.041L200.535 226.388C200.08 224.477 199.636 222.561 199.201 220.647L200.663 220.314C200.446 219.358 200.23 218.401 200.017 217.445C199.812 216.525 199.608 215.602 199.407 214.677L197.942 214.996C197.54 213.15 197.148 211.295 196.768 209.433L198.238 209.133C197.861 207.287 197.495 205.434 197.144 203.576L195.67 203.855C195.318 201.996 194.98 200.131 194.658 198.261L196.136 198.006C195.816 196.148 195.512 194.287 195.226 192.422L193.743 192.649C193.456 190.777 193.187 188.9 192.938 187.021L194.425 186.824C194.177 184.956 193.95 183.085 193.745 181.214L192.254 181.378C192.048 179.492 191.864 177.606 191.705 175.719L193.199 175.593C193.041 173.715 192.907 171.838 192.801 169.963L191.303 170.048C191.196 168.153 191.115 166.259 191.064 164.368L192.564 164.327C192.513 162.445 192.492 160.566 192.503 158.691L191.003 158.683C191.013 156.784 191.057 154.89 191.134 152.999L192.633 153.061C192.71 151.182 192.821 149.31 192.97 147.443L191.474 147.325C191.624 145.433 191.812 143.547 192.039 141.668L193.528 141.848C193.754 139.986 194.018 138.131 194.325 136.286L192.845 136.04C193.156 134.17 193.508 132.308 193.906 130.455L195.373 130.77C195.569 129.856 195.777 128.944 195.995 128.034C196.247 126.988 196.508 125.95 196.78 124.92L195.329 124.538C195.886 122.426 196.482 120.347 197.118 118.305L198.55 118.75C199.193 116.685 199.876 114.658 200.596 112.672L199.186 112.161C199.932 110.104 200.719 108.09 201.544 106.122L202.927 106.702C203.764 104.704 204.641 102.756 205.556 100.859L204.204 100.208C205.157 98.2325 206.149 96.3119 207.18 94.4497L208.492 95.1761C209.542 93.2802 210.63 91.4468 211.755 89.6798L210.49 88.8742C211.672 87.0186 212.893 85.2337 214.153 83.5239L215.361 84.4135C216.645 82.6698 217.968 81.0073 219.325 79.4305L218.188 78.4518C219.627 76.7811 221.105 75.2028 222.62 73.7223L223.668 74.7951C225.213 73.2856 226.794 71.8826 228.406 70.5913L227.468 69.4205C229.19 68.0414 230.951 66.7844 232.745 65.6562L233.543 66.926C234.44 66.3621 235.344 65.8319 236.255 65.3362C237.087 64.8842 237.919 64.4759 238.751 64.1093L238.147 62.7365C239.969 61.9344 241.799 61.3208 243.634 60.88L243.985 62.3385C245.8 61.9025 247.623 61.6436 249.45 61.5455L249.37 60.0476C251.299 59.944 253.231 60.0114 255.163 60.2318L254.993 61.7221C256.818 61.9303 258.648 62.2814 260.482 62.7608L260.862 61.3096C262.704 61.7912 264.542 62.3962 266.375 63.1088L265.831 64.5068C267.558 65.1784 269.284 65.95 271.006 66.8088L271.676 65.4664C273.382 66.317 275.08 67.2489 276.768 68.2491L276.003 69.5396C277.62 70.4981 279.231 71.5219 280.832 72.5997L281.67 71.3553Z" stroke="#EB84F8" stroke-width="3" stroke-dasharray="6 6"/>
<path d="M451.793 17.1459C468.983 30.4036 484.432 49.535 492.308 78.1609C500.673 108.563 503.117 143.856 495.09 174.508C487.019 205.331 469.457 225.114 450.612 237.384C431.651 249.73 410.296 256.195 391.894 241.703C373.832 227.479 364.815 195.472 357.868 164.346C351.044 133.771 346.4 100.785 353.684 70.5037C361.201 39.2578 377.139 14.6586 396.395 4.18596C414.818 -5.83386 434.211 3.58515 451.793 17.1459Z" fill="#EB84F8"/>
<path d="M605.594 83.6712C607.202 84.6909 608.797 85.7596 610.379 86.8661L609.52 88.0953C610.296 88.6381 611.069 89.1904 611.839 89.751C612.599 90.3045 613.356 90.8694 614.108 91.446L615.02 90.2555C616.527 91.4102 618.017 92.6115 619.487 93.8621L618.514 95.0044C619.94 96.2176 621.345 97.4774 622.726 98.7861L623.758 97.6974C625.135 99.0024 626.488 100.356 627.814 101.76L626.724 102.79C628.007 104.148 629.263 105.554 630.49 107.01L631.637 106.044C632.857 107.493 634.048 108.99 635.206 110.538L634.005 111.437C635.121 112.929 636.206 114.469 637.258 116.06L638.509 115.233C639.552 116.81 640.562 118.436 641.536 120.112L640.239 120.866C641.173 122.474 642.074 124.129 642.938 125.833L644.276 125.154C645.129 126.837 645.948 128.567 646.729 130.346L645.356 130.949C646.103 132.65 646.815 134.396 647.49 136.188L648.894 135.66C649.558 137.424 650.187 139.231 650.777 141.085L649.348 141.54C649.633 142.433 649.909 143.337 650.175 144.252C650.467 145.251 650.75 146.256 651.026 147.266L652.473 146.871C653.025 148.891 653.545 150.932 654.034 152.991L652.574 153.337C653.054 155.361 653.503 157.402 653.918 159.458L655.388 159.161C655.804 161.218 656.186 163.29 656.535 165.373L655.055 165.62C655.399 167.676 655.708 169.742 655.983 171.816L657.47 171.619C657.746 173.704 657.986 175.797 658.189 177.895L656.696 178.04C656.898 180.117 657.063 182.199 657.189 184.283L658.687 184.192C658.815 186.294 658.904 188.399 658.954 190.502L657.454 190.538C657.504 192.626 657.513 194.713 657.482 196.796L658.982 196.819C658.95 198.928 658.876 201.033 658.759 203.131L657.261 203.048C657.144 205.134 656.985 207.212 656.78 209.28L658.273 209.428C658.064 211.53 657.811 213.621 657.509 215.698L656.025 215.483C655.725 217.55 655.377 219.604 654.981 221.639L656.454 221.926C656.05 224 655.596 226.056 655.089 228.092L653.634 227.73C653.383 228.741 653.119 229.746 652.841 230.745C652.572 231.718 652.291 232.678 651.999 233.625L653.433 234.066C652.826 236.037 652.173 237.957 651.477 239.825L650.071 239.301C649.363 241.203 648.609 243.051 647.813 244.846L649.184 245.454C648.35 247.336 647.47 249.162 646.548 250.933L645.218 250.24C644.283 252.035 643.305 253.773 642.287 255.455L643.571 256.232C642.507 257.99 641.4 259.688 640.255 261.329L639.025 260.47C637.869 262.125 636.673 263.72 635.442 265.257L636.613 266.195C635.331 267.795 634.012 269.334 632.66 270.813L631.553 269.801C630.192 271.289 628.797 272.715 627.374 274.083L628.413 275.165C626.936 276.584 625.429 277.94 623.897 279.235L622.929 278.09C621.389 279.392 619.824 280.632 618.239 281.812L619.135 283.015C617.493 284.238 615.83 285.399 614.153 286.498L613.33 285.244C612.491 285.794 611.648 286.329 610.802 286.849C609.954 287.37 609.101 287.88 608.245 288.375L608.996 289.674C607.244 290.688 605.473 291.648 603.688 292.542L603.016 291.201C601.23 292.096 599.433 292.922 597.629 293.667L598.202 295.054C596.322 295.831 594.432 296.524 592.535 297.12L592.086 295.689C590.19 296.284 588.293 296.779 586.401 297.159L586.697 298.63C584.704 299.03 582.71 299.309 580.722 299.452L580.615 297.955C578.667 298.094 576.73 298.097 574.808 297.95L574.694 299.445C572.696 299.292 570.71 298.982 568.741 298.5L569.097 297.043C567.256 296.592 565.43 295.984 563.624 295.205L563.029 296.582C561.234 295.806 559.458 294.868 557.707 293.755L558.512 292.489C557.708 291.978 556.908 291.428 556.113 290.837C555.395 290.303 554.691 289.739 554.001 289.147L553.024 290.286C551.623 289.083 550.282 287.772 548.997 286.36L550.105 285.35C548.904 284.031 547.749 282.618 546.637 281.12L545.433 282.014C544.337 280.536 543.285 278.982 542.275 277.358L543.549 276.566C542.596 275.034 541.678 273.436 540.794 271.779L539.471 272.485C538.602 270.857 537.766 269.175 536.961 267.447L538.321 266.814C537.55 265.16 536.807 263.462 536.09 261.724L534.703 262.297C533.996 260.585 533.314 258.837 532.655 257.058L534.062 256.537C533.423 254.812 532.804 253.056 532.206 251.275L530.784 251.753C530.191 249.989 529.617 248.203 529.06 246.398L530.494 245.956C529.948 244.185 529.418 242.395 528.903 240.592L527.461 241.004C526.948 239.207 526.45 237.398 525.964 235.58L527.413 235.193C526.932 233.392 526.464 231.582 526.006 229.768L524.552 230.135C524.093 228.316 523.645 226.494 523.206 224.673L524.664 224.321C524.445 223.411 524.228 222.501 524.013 221.592C523.779 220.601 523.547 219.608 523.319 218.612L521.857 218.947C521.401 216.958 520.957 214.959 520.529 212.952L521.996 212.639C521.572 210.649 521.164 208.652 520.774 206.648L519.302 206.935C518.912 204.928 518.541 202.914 518.192 200.895L519.67 200.639C519.323 198.634 518.999 196.624 518.7 194.612L517.216 194.832C516.915 192.807 516.639 190.778 516.393 188.747L517.882 188.566C517.636 186.546 517.419 184.525 517.235 182.504L515.741 182.641C515.554 180.599 515.4 178.558 515.281 176.518L516.779 176.431C516.661 174.401 516.579 172.373 516.535 170.349L515.036 170.382C514.992 168.331 514.988 166.284 515.027 164.241L516.526 164.27C516.565 162.24 516.647 160.217 516.774 158.201L515.277 158.106C515.407 156.06 515.584 154.02 515.812 151.989L517.302 152.156C517.528 150.145 517.804 148.143 518.133 146.152L516.653 145.907C516.987 143.887 517.376 141.877 517.823 139.879L519.287 140.207C519.507 139.223 519.741 138.241 519.99 137.264C520.246 136.262 520.511 135.269 520.786 134.283L519.342 133.879C519.907 131.857 520.513 129.867 521.16 127.913L522.584 128.384C523.236 126.413 523.929 124.479 524.661 122.584L523.261 122.044C524.019 120.082 524.818 118.162 525.657 116.286L527.026 116.898C527.874 115.001 528.762 113.15 529.688 111.35L528.354 110.664C529.318 108.79 530.323 106.969 531.366 105.204L532.658 105.968C533.715 104.179 534.812 102.45 535.945 100.784L534.705 99.9403C535.893 98.1938 537.122 96.5146 538.388 94.9067L539.566 95.8347C540.851 94.2032 542.174 92.648 543.531 91.1734L542.427 90.1576C543.86 88.6014 545.332 87.1315 546.839 85.7529L547.851 86.8598C549.378 85.4632 550.94 84.1644 552.534 82.9684L551.633 81.7688C553.324 80.4994 555.052 79.341 556.812 78.2996L557.576 79.5906C558.451 79.0725 559.334 78.5847 560.224 78.1279C561.057 77.7 561.892 77.3134 562.727 76.9663L562.152 75.5811C563.969 74.8264 565.794 74.2486 567.624 73.833L567.956 75.2958C569.763 74.8856 571.577 74.6406 573.395 74.5456L573.317 73.0477C575.23 72.9477 577.147 73.0067 579.062 73.2081L578.906 74.6999C580.723 74.8909 582.546 75.2157 584.371 75.6605L584.727 74.2032C586.564 74.6509 588.398 75.215 590.226 75.8805L589.713 77.29C591.444 77.9201 593.173 78.6452 594.899 79.4529L595.535 78.0944C597.25 78.8969 598.957 79.7773 600.653 80.723L599.922 82.0331C601.553 82.9422 603.176 83.9142 604.79 84.9379L605.594 83.6712Z" stroke="#EB84F8" stroke-width="3" stroke-dasharray="6 6"/>
<path d="M727.406 83.6712C725.798 84.6909 724.203 85.7596 722.621 86.8661L723.48 88.0953C722.704 88.6381 721.931 89.1904 721.161 89.751C720.401 90.3045 719.644 90.8694 718.892 91.446L717.98 90.2555C716.473 91.4102 714.983 92.6115 713.513 93.8621L714.486 95.0044C713.06 96.2176 711.655 97.4774 710.274 98.7861L709.242 97.6974C707.865 99.0024 706.512 100.356 705.186 101.76L706.276 102.79C704.993 104.148 703.737 105.554 702.51 107.01L701.363 106.044C700.143 107.493 698.952 108.99 697.794 110.538L698.995 111.437C697.879 112.929 696.794 114.469 695.742 116.06L694.491 115.233C693.448 116.81 692.438 118.436 691.464 120.112L692.761 120.866C691.827 122.474 690.926 124.129 690.062 125.833L688.724 125.154C687.871 126.837 687.052 128.567 686.271 130.346L687.644 130.949C686.897 132.65 686.185 134.396 685.51 136.188L684.106 135.66C683.442 137.424 682.813 139.231 682.223 141.085L683.652 141.54C683.367 142.433 683.091 143.337 682.825 144.252C682.533 145.251 682.25 146.256 681.974 147.266L680.527 146.871C679.975 148.891 679.455 150.932 678.966 152.991L680.426 153.337C679.946 155.361 679.497 157.402 679.082 159.458L677.612 159.161C677.196 161.218 676.814 163.29 676.465 165.373L677.945 165.62C677.601 167.676 677.292 169.742 677.017 171.816L675.53 171.619C675.254 173.704 675.014 175.797 674.811 177.895L676.304 178.04C676.102 180.117 675.937 182.199 675.811 184.283L674.313 184.192C674.185 186.294 674.096 188.399 674.046 190.502L675.546 190.538C675.496 192.626 675.487 194.713 675.518 196.796L674.018 196.819C674.05 198.928 674.124 201.033 674.241 203.131L675.739 203.048C675.856 205.134 676.015 207.212 676.22 209.28L674.727 209.428C674.936 211.53 675.189 213.621 675.491 215.698L676.975 215.483C677.275 217.55 677.623 219.604 678.019 221.639L676.547 221.926C676.95 224 677.404 226.056 677.911 228.092L679.366 227.73C679.617 228.741 679.881 229.746 680.159 230.745C680.428 231.718 680.709 232.678 681.001 233.625L679.567 234.066C680.174 236.037 680.827 237.957 681.523 239.825L682.929 239.301C683.637 241.203 684.391 243.051 685.187 244.846L683.816 245.454C684.65 247.336 685.53 249.162 686.452 250.933L687.782 250.24C688.717 252.035 689.695 253.773 690.713 255.455L689.429 256.232C690.493 257.99 691.6 259.688 692.746 261.329L693.975 260.47C695.131 262.125 696.327 263.72 697.558 265.257L696.387 266.195C697.669 267.795 698.988 269.334 700.34 270.813L701.447 269.801C702.808 271.289 704.203 272.715 705.626 274.083L704.587 275.165C706.064 276.584 707.571 277.94 709.103 279.235L710.071 278.09C711.611 279.392 713.176 280.632 714.761 281.812L713.865 283.015C715.507 284.238 717.17 285.399 718.847 286.498L719.67 285.244C720.509 285.794 721.352 286.329 722.198 286.849C723.046 287.37 723.899 287.88 724.755 288.375L724.004 289.674C725.756 290.688 727.527 291.648 729.312 292.542L729.984 291.201C731.77 292.096 733.567 292.922 735.371 293.667L734.798 295.054C736.678 295.831 738.568 296.524 740.465 297.12L740.914 295.689C742.81 296.284 744.707 296.779 746.599 297.159L746.303 298.63C748.296 299.03 750.29 299.309 752.278 299.451L752.385 297.955C754.333 298.094 756.27 298.097 758.192 297.95L758.306 299.445C760.304 299.292 762.29 298.982 764.259 298.5L763.903 297.043C765.744 296.592 767.57 295.984 769.376 295.205L769.971 296.582C771.766 295.806 773.542 294.868 775.293 293.755L774.488 292.489C775.292 291.978 776.092 291.428 776.887 290.837C777.605 290.303 778.309 289.739 778.999 289.147L779.976 290.286C781.377 289.083 782.718 287.772 784.003 286.36L782.895 285.35C784.096 284.031 785.251 282.618 786.363 281.12L787.567 282.014C788.663 280.536 789.715 278.982 790.725 277.358L789.451 276.566C790.404 275.034 791.322 273.436 792.206 271.779L793.529 272.485C794.398 270.857 795.234 269.175 796.039 267.447L794.679 266.814C795.45 265.16 796.193 263.462 796.91 261.724L798.297 262.297C799.004 260.585 799.686 258.837 800.345 257.058L798.938 256.537C799.577 254.812 800.196 253.056 800.794 251.275L802.216 251.753C802.809 249.989 803.383 248.203 803.94 246.398L802.506 245.956C803.052 244.185 803.582 242.395 804.097 240.592L805.539 241.004C806.052 239.207 806.55 237.398 807.036 235.58L805.587 235.193C806.068 233.392 806.536 231.582 806.994 229.768L808.448 230.135C808.907 228.316 809.355 226.494 809.794 224.673L808.336 224.321C808.555 223.411 808.772 222.501 808.987 221.592C809.221 220.601 809.453 219.608 809.681 218.612L811.143 218.947C811.599 216.958 812.043 214.959 812.471 212.952L811.004 212.639C811.428 210.649 811.836 208.652 812.226 206.648L813.698 206.935C814.088 204.928 814.459 202.914 814.808 200.895L813.33 200.639C813.677 198.634 814.001 196.624 814.3 194.612L815.784 194.832C816.085 192.807 816.361 190.778 816.607 188.747L815.118 188.566C815.364 186.546 815.581 184.525 815.765 182.504L817.259 182.641C817.446 180.599 817.6 178.558 817.719 176.518L816.221 176.431C816.339 174.401 816.421 172.373 816.465 170.349L817.964 170.382C818.008 168.331 818.012 166.284 817.973 164.241L816.474 164.27C816.435 162.24 816.353 160.217 816.226 158.201L817.723 158.106C817.593 156.06 817.416 154.02 817.188 151.989L815.698 152.156C815.472 150.145 815.196 148.143 814.867 146.152L816.347 145.907C816.013 143.887 815.624 141.877 815.177 139.879L813.713 140.207C813.493 139.223 813.259 138.241 813.01 137.264C812.754 136.262 812.489 135.269 812.214 134.283L813.658 133.879C813.093 131.857 812.487 129.867 811.84 127.913L810.416 128.384C809.764 126.413 809.071 124.479 808.339 122.584L809.739 122.044C808.981 120.082 808.182 118.161 807.343 116.286L805.974 116.898C805.126 115.001 804.238 113.15 803.312 111.35L804.646 110.664C803.682 108.79 802.677 106.969 801.634 105.204L800.342 105.968C799.285 104.179 798.188 102.45 797.055 100.784L798.295 99.9403C797.107 98.1938 795.878 96.5146 794.612 94.9067L793.434 95.8347C792.149 94.2032 790.826 92.648 789.469 91.1734L790.573 90.1576C789.14 88.6014 787.668 87.1315 786.161 85.7529L785.149 86.8598C783.622 85.4632 782.06 84.1644 780.466 82.9684L781.367 81.7688C779.676 80.4994 777.948 79.341 776.188 78.2996L775.424 79.5906C774.549 79.0725 773.666 78.5847 772.776 78.1279C771.943 77.7 771.108 77.3134 770.273 76.9663L770.848 75.5811C769.031 74.8264 767.206 74.2486 765.376 73.833L765.044 75.2958C763.237 74.8856 761.423 74.6406 759.605 74.5456L759.683 73.0477C757.77 72.9477 755.853 73.0067 753.938 73.2081L754.094 74.6999C752.277 74.8909 750.454 75.2157 748.629 75.6605L748.273 74.2032C746.436 74.6509 744.602 75.215 742.774 75.8805L743.287 77.29C741.556 77.9201 739.827 78.6452 738.101 79.4529L737.465 78.0944C735.75 78.8969 734.044 79.7773 732.347 80.723L733.078 82.0331C731.447 82.9422 729.824 83.9142 728.21 84.9379L727.406 83.6712Z" stroke="#EB84F8" stroke-width="3" stroke-dasharray="6 6"/>
</svg>
