<svg width="850" height="300" viewBox="0 0 850 300" fill="none" xmlns="http://www.w3.org/2000/svg">
<g clip-path="url(#clip0_648_52)">
<ellipse cx="425" cy="150" rx="425" ry="150" fill="#FAE0FD"/>
<path fill-rule="evenodd" clip-rule="evenodd" d="M658.029 155.773C650.811 174.759 627.608 184.851 608.799 198.203C591.446 210.521 577.512 227.138 554.203 229.476C528.512 232.053 501.742 225.014 483.425 210.778C465.109 196.543 462.739 175.733 459.37 155.773C455.216 131.158 439.109 101.433 462.055 84.1604C484.991 66.895 522.301 85.4482 554.203 84.3874C589.083 83.2276 628.442 59.7807 654.589 77.7584C680.658 95.682 667.891 129.832 658.029 155.773Z" fill="#F2AEFA"/>
<path fill-rule="evenodd" clip-rule="evenodd" d="M191.971 155.773C199.189 174.759 222.392 184.851 241.201 198.203C258.554 210.521 272.488 227.138 295.797 229.476C321.488 232.053 348.258 225.014 366.575 210.778C384.891 196.543 387.261 175.733 390.63 155.773C394.784 131.158 410.891 101.433 387.945 84.1604C365.009 66.895 327.699 85.4482 295.797 84.3874C260.917 83.2276 221.558 59.7807 195.411 77.7584C169.342 95.682 182.109 129.832 191.971 155.773Z" fill="#F2AEFA"/>
</g>
<defs>
<clipPath id="clip0_648_52">
<rect width="850" height="300" fill="white"/>
</clipPath>
</defs>
</svg>
